# Blender 4.2.0
# www.blender.org
mtllib ImageToStl.com_starpiece.mtl
o node_mesh0_mesh0
v -3.639847 1.486151 -0.105934
v -2.844925 -2.549006 9.101097
v -6.987501 -7.125177 1.306175
v -7.354691 7.085760 6.292503
v -8.124222 12.204901 -3.926247
v -13.600782 18.054510 2.476097
v -7.835159 24.943182 -9.441872
v -20.700394 28.747869 -3.670387
v -14.655472 32.906075 -16.686012
v -30.399612 36.605293 -11.990700
v -21.678909 27.798651 -25.883278
v -30.120316 36.939278 -28.812965
v -24.038284 27.704901 -39.357887
v -30.723831 36.720528 -41.018044
v -35.637894 27.886541 -43.055153
v -40.059769 34.603340 -35.410622
v -48.356644 24.693182 -37.322731
v -52.012894 30.656073 -28.291481
v -63.051956 23.904119 -32.250465
v -60.481644 25.411932 -21.881325
v -69.755081 17.706854 -25.768044
v -65.850784 18.034979 -14.879372
v -67.473831 7.431463 -18.805153
v -70.208206 9.228338 -5.504372
v -69.950394 -1.254084 -9.172340
v -73.374222 1.575994 1.540550
v -63.991409 -6.599786 -0.000465
v -64.342972 7.822088 5.042503
v -53.717972 -0.990412 5.255394
v -52.167191 16.734198 9.108908
v -48.903519 3.771307 17.190941
v -38.714066 12.443182 13.839378
v -36.885941 0.572088 19.405785
v -25.477737 7.224432 13.991722
v -24.544144 -2.584162 12.013205
v -12.940628 1.921698 11.683128
v -12.721878 -6.836115 8.646019
v -6.987501 -7.125177 1.306175
v -48.555862 -10.414240 12.231956
v -51.313675 -17.431816 -3.039528
v -60.030472 -11.660334 -13.098122
v -65.307816 -3.674006 -22.600075
v -69.501175 7.165838 -29.461403
v -72.676956 17.113104 -35.434059
v -58.610550 17.154119 -39.943825
v -42.942581 16.765448 -44.307106
v -29.341019 16.345526 -43.072731
v -16.120316 14.742010 -37.168434
v -8.678909 23.822088 -27.057106
v -3.436722 29.667791 -19.344215
v -3.981646 19.136541 -16.080544
v -5.821489 6.120916 -11.271950
v -7.792192 -3.511896 -9.359840
v -12.856646 -12.090021 -8.238747
v -62.594925 6.818182 -38.201637
v -59.688675 -4.529474 -32.572731
v -51.159378 -4.457209 -40.801247
v -53.557816 -17.185724 -36.584450
v -40.665237 -12.791193 -38.342262
v -44.401566 -23.644709 -31.869606
v -29.036331 -18.656425 -31.629372
v -40.536331 -21.060724 -17.787575
v -27.819534 -27.293146 -17.904762
v -37.100784 -26.824396 -6.080544
v -26.626175 -33.088066 -7.793434
v -26.003128 -23.705256 -0.660622
v -20.055862 -24.007992 -8.273903
v -17.719925 -12.818537 0.341331
v -12.856646 -12.090021 -8.238747
v -18.380081 12.939276 9.700705
v -21.421097 27.521307 12.534691
v -29.477737 35.556465 6.880394
v -41.835159 29.183416 0.446800
v -46.046097 38.615059 -8.141090
v -55.233597 30.148260 0.737816
v -57.852737 39.587715 -5.803200
v -61.671097 30.072088 -9.566872
v -54.997269 36.232246 -16.008278
v -62.594925 6.818182 -38.201637
v -48.063675 6.320135 -44.057106
v -36.624222 6.431463 -53.105934
v -24.985550 4.730291 -49.959450
v -21.153519 -2.910334 -36.918434
v -8.628130 0.824041 -34.543434
v -14.012894 -13.088068 -32.228981
v -3.376175 -9.111506 -31.943825
v -27.212112 22.169744 18.130394
v -28.413284 34.191231 20.505394
v -38.510941 27.226385 15.610863
v -8.989456 10.615057 -24.617653
v -3.981646 -1.976740 -22.894997
v -7.454300 -10.906427 -21.430153
v -19.579300 -16.927912 -19.971169
v -29.036331 -18.656425 -31.629372
v -25.012894 -11.420099 7.343285
v -36.661331 -8.509943 16.251488
v -45.983597 -5.381037 23.114769
v -60.432816 -16.841974 -27.898903
v -56.092972 -26.648615 -32.281715
v -53.844925 -23.168146 -19.846169
v -30.460159 -9.416193 -47.605934
v -40.665237 -12.791193 -38.342262
v -40.587112 -3.841974 -51.373512
v -51.159378 -4.457209 -40.801247
v -60.786331 18.183416 -2.393044
v -32.358597 -2.406427 -59.086403
v -38.003128 -15.861506 3.587425
v -41.739456 35.419746 -20.893044
v -19.579300 -16.927912 -19.971169
vn 0.9958 0.0449 -0.0803
vn 0.8004 -0.2292 0.5540
vn 0.8775 -0.4227 -0.2264
vn 0.7114 0.4842 0.5094
vn 0.9160 0.2963 0.2706
vn 0.7524 0.4487 0.4823
vn 0.7021 0.4832 0.5231
vn 0.5774 0.7663 0.2819
vn 0.2771 0.9583 -0.0693
vn 0.2022 0.9763 0.0775
vn 0.5024 0.7753 -0.3828
vn 0.3435 0.9383 -0.0410
vn 0.6829 0.4022 -0.6098
vn 0.2091 0.7605 -0.6148
vn -0.1276 0.2987 -0.9458
vn -0.4137 0.8163 -0.4030
vn -0.3722 0.5822 -0.7228
vn -0.4262 0.8105 -0.4018
vn -0.4668 0.8135 -0.3469
vn -0.7274 0.6755 -0.1211
vn -0.8939 0.3842 0.2311
vn -0.9129 0.3862 0.1318
vn -0.9995 -0.0290 -0.0088
vn -0.9062 0.4150 0.0813
vn -0.9100 -0.3810 -0.1638
vn -0.8647 -0.1366 0.4834
vn -0.5094 -0.6539 0.5594
vn -0.4967 0.1905 0.8467
vn -0.6372 -0.2751 0.7200
vn -0.5304 0.3321 0.7800
vn -0.6164 0.2400 0.7500
vn -0.1446 0.1512 0.9779
vn 0.2778 0.1273 0.9522
vn 0.2871 -0.0155 0.9578
vn 0.2943 -0.3132 0.9029
vn 0.2755 0.0462 0.9602
vn 0.2568 -0.6610 0.7051
vn 0.4054 -0.8650 0.2956
vn -0.5863 -0.6559 0.4754
vn -0.4780 -0.7806 0.4027
vn -0.7686 -0.6267 0.1282
vn -0.9067 -0.3808 -0.1816
vn -0.9200 -0.3621 -0.1499
vn -0.8631 0.2518 -0.4378
vn -0.3024 0.3347 -0.8925
vn -0.2484 0.3677 -0.8962
vn 0.2854 0.3766 -0.8813
vn 0.6792 0.2582 -0.6871
vn 0.6144 0.3798 -0.6916
vn 0.7804 0.6039 -0.1618
vn 0.9987 -0.0506 -0.0042
vn 0.9999 0.0168 -0.0011
vn 0.9329 -0.3601 0.0050
vn 0.7604 -0.6454 0.0720
vn -0.6759 -0.4795 -0.5596
vn -0.7516 -0.3200 -0.5768
vn -0.4778 -0.2990 -0.8260
vn -0.3765 -0.3142 -0.8715
vn 0.0856 -0.4714 -0.8777
vn 0.2189 -0.8838 -0.4134
vn 0.2307 -0.8492 -0.4750
vn -0.1591 -0.9842 -0.0777
vn 0.1501 -0.8628 -0.4828
vn -0.4376 -0.8602 0.2618
vn 0.1830 -0.9744 0.1302
vn 0.2657 -0.6068 0.7491
vn 0.8050 -0.5866 0.0886
vn 0.5364 -0.7104 0.4558
vn 0.7350 -0.6636 0.1392
vn 0.5829 0.1944 0.7889
vn 0.8240 0.3875 0.4133
vn 0.0742 0.9905 0.1161
vn -0.2525 0.8201 0.5136
vn 0.1165 0.9560 0.2693
vn -0.4089 0.4692 0.7827
vn -0.4849 0.8197 0.3048
vn -0.9262 0.3643 0.0972
vn -0.4316 0.8184 -0.3794
vn -0.3486 -0.0611 -0.9353
vn -0.5011 0.0507 -0.8639
vn -0.2230 0.4605 -0.8592
vn 0.7026 0.1431 -0.6970
vn 0.5647 -0.3430 -0.7507
vn 0.6382 0.1207 -0.7604
vn 0.3110 -0.7182 -0.6225
vn 0.7832 -0.3933 -0.4816
vn 0.2521 -0.1453 0.9567
vn 0.1157 0.6315 0.7667
vn -0.5746 0.4034 0.7121
vn 0.9311 0.1067 -0.3488
vn 0.9985 0.0514 0.0206
vn 0.7124 -0.6866 0.1452
vn 0.4090 -0.9116 -0.0399
vn 0.3155 -0.7845 -0.5339
vn 0.2629 -0.6319 0.7291
vn 0.2771 -0.6546 0.7034
vn -0.3210 -0.2731 0.9069
vn -0.9175 -0.3495 -0.1896
vn -0.4245 -0.8240 -0.3753
vn -0.3687 -0.8833 0.2895
vn 0.3566 -0.7578 -0.5465
vn -0.2771 -0.8123 -0.5131
vn -0.5657 -0.4161 -0.7120
vn -0.5541 -0.3313 -0.7637
vn -0.7745 0.4139 0.4784
vn 0.1221 -0.2183 -0.9682
vn -0.0892 -0.7691 0.6328
vn -0.1199 0.9772 -0.1753
vn 0.7285 -0.5825 -0.3605
vt 0.349980 0.125000
vt 0.500000 0.000000
vt 0.250000 0.125000
vt 0.449950 0.125000
vt 0.299990 0.250000
vt 0.399960 0.250000
vt 0.349980 0.312500
vt 0.399960 0.375000
vt 0.349980 0.437500
vt 0.399960 0.500000
vt 0.299990 0.500000
vt 0.250000 0.437500
vt 0.299990 0.375000
vt 0.250000 0.312500
vt 0.500000 0.250000
vt 0.549990 0.125000
vt 0.599980 0.250000
vt 0.699950 0.250000
vt 0.649960 0.312500
vt 0.750000 0.312500
vt 0.699950 0.375000
vt 0.750000 0.437500
vt 0.649960 0.437500
vt 0.699950 0.500000
vt 0.599980 0.500000
vt 0.599980 0.375000
vt 0.649960 0.125000
vt 0.750000 0.125000
vt 0.799990 0.500000
vt 0.799990 0.375000
vt 0.799990 0.250000
vt 0.199950 0.250000
vt 0.199950 0.375000
vt 0.199950 0.500000
vt 0.099980 0.250000
vt 0.000000 0.250000
vt 0.899960 0.250000
vt 1.000000 0.250000
vt 0.949950 0.312500
vt 1.000000 0.375000
vt 0.949950 0.437500
vt 1.000000 0.500000
vt 0.899960 0.500000
vt 0.849980 0.437500
vt 0.899960 0.375000
vt 0.849980 0.312500
vt 0.449950 0.312500
vt 0.449950 0.437500
vt 0.500000 0.500000
vt 0.549990 0.437500
vt 0.500000 0.375000
vt 0.549990 0.312500
vt 0.149960 0.312500
vt 0.149960 0.437500
vt 0.099980 0.500000
vt 0.049990 0.437500
vt 0.099980 0.375000
vt 0.049990 0.312500
vt 0.000000 0.375000
vt 0.000000 0.500000
s 1
usemtl mat_0
f 1/1/1 2/2/2 3/3/3
f 4/4/4 2/2/2 1/1/1
f 5/5/5 4/4/4 1/1/1
f 6/6/6 4/4/4 5/5/5
f 7/7/7 6/6/6 5/5/5
f 8/8/8 6/6/6 7/7/7
f 9/9/9 8/8/8 7/7/7
f 10/10/10 8/8/8 9/9/9
f 11/11/11 10/10/10 9/9/9
f 12/9/12 10/10/10 11/11/11
f 13/12/13 12/9/12 11/11/11
f 14/13/14 12/9/12 13/12/13
f 15/14/15 14/13/14 13/12/13
f 16/7/16 14/13/14 15/14/15
f 17/5/17 16/7/16 15/14/15
f 18/6/18 16/7/16 17/5/17
f 19/4/19 18/6/18 17/5/17
f 20/15/20 18/6/18 19/4/19
f 21/16/21 20/15/20 19/4/19
f 22/17/22 20/15/20 21/16/21
f 23/18/23 22/17/22 21/16/21
f 24/19/24 22/17/22 23/18/23
f 25/20/25 24/19/24 23/18/23
f 26/21/26 24/19/24 25/20/25
f 27/22/27 26/21/26 25/20/25
f 28/23/28 26/21/26 27/22/27
f 29/24/29 28/23/28 27/22/27
f 30/25/30 28/23/28 29/24/29
f 31/23/31 30/25/30 29/24/29
f 32/26/32 30/25/30 31/23/31
f 33/19/33 32/26/32 31/23/31
f 34/17/34 32/26/32 33/19/33
f 35/18/35 34/17/34 33/19/33
f 36/16/36 34/17/34 35/18/35
f 37/27/37 36/16/36 35/18/35
f 2/2/2 36/16/36 37/27/37
f 38/28/38 2/2/2 37/27/37
f 29/24/29 39/22/39 31/23/31
f 40/29/40 39/22/39 29/24/29
f 27/22/27 40/29/40 29/24/29
f 41/30/41 40/29/40 27/22/27
f 25/20/25 41/30/41 27/22/27
f 42/31/42 41/30/41 25/20/25
f 23/18/23 42/31/42 25/20/25
f 43/27/43 42/31/42 23/18/23
f 21/16/21 43/27/43 23/18/23
f 44/2/44 43/27/43 21/16/21
f 19/4/19 44/2/44 21/16/21
f 45/1/45 44/2/44 19/4/19
f 17/5/17 45/1/45 19/4/19
f 46/32/46 45/1/45 17/5/17
f 15/14/15 46/32/46 17/5/17
f 47/33/47 46/32/46 15/14/15
f 13/12/13 47/33/47 15/14/15
f 48/34/48 47/33/47 13/12/13
f 11/11/11 48/34/48 13/12/13
f 49/12/49 48/34/48 11/11/11
f 9/9/9 49/12/49 11/11/11
f 50/13/50 49/12/49 9/9/9
f 7/7/7 50/13/50 9/9/9
f 51/14/51 50/13/50 7/7/7
f 5/5/5 51/14/51 7/7/7
f 52/32/52 51/14/51 5/5/5
f 1/1/1 52/32/52 5/5/5
f 53/35/53 52/32/52 1/1/1
f 3/3/3 53/35/53 1/1/1
f 54/36/54 53/35/53 3/3/3
f 55/28/55 43/27/43 44/2/44
f 56/37/56 43/27/43 55/28/55
f 57/38/57 56/37/56 55/28/55
f 58/39/58 56/37/56 57/38/57
f 59/40/59 58/39/58 57/38/57
f 60/41/60 58/39/58 59/40/59
f 61/42/61 60/41/60 59/40/59
f 62/43/62 60/41/60 61/42/61
f 63/41/63 62/43/62 61/42/61
f 64/44/64 62/43/62 63/41/63
f 65/45/65 64/44/64 63/41/63
f 66/46/66 64/44/64 65/45/65
f 67/39/67 66/46/66 65/45/65
f 68/37/68 66/46/66 67/39/67
f 69/38/69 68/37/68 67/39/67
f 38/28/38 68/37/68 69/38/69
f 4/4/4 36/16/36 2/2/2
f 70/15/70 36/16/36 4/4/4
f 6/6/6 70/15/70 4/4/4
f 71/47/71 70/15/70 6/6/6
f 8/8/8 71/47/71 6/6/6
f 72/48/72 71/47/71 8/8/8
f 10/10/10 72/48/72 8/8/8
f 73/49/73 72/48/72 10/10/10
f 74/48/74 73/49/73 10/10/10
f 75/50/75 73/49/73 74/48/74
f 76/51/76 75/50/75 74/48/74
f 77/52/77 75/50/75 76/51/76
f 78/47/78 77/52/77 76/51/76
f 20/15/20 77/52/77 78/47/78
f 18/6/18 20/15/20 78/47/78
f 45/1/45 79/3/79 44/2/44
f 80/35/80 79/3/79 45/1/45
f 46/32/46 80/35/80 45/1/45
f 81/53/81 80/35/80 46/32/46
f 47/33/47 81/53/81 46/32/46
f 82/54/82 81/53/81 47/33/47
f 48/34/48 82/54/82 47/33/47
f 83/55/83 82/54/82 48/34/48
f 84/54/84 83/55/83 48/34/48
f 85/56/85 83/55/83 84/54/84
f 86/57/86 85/56/85 84/54/84
f 70/15/70 34/17/34 36/16/36
f 87/52/87 34/17/34 70/15/70
f 71/47/71 87/52/87 70/15/70
f 88/51/88 87/52/87 71/47/71
f 72/48/72 88/51/88 71/47/71
f 89/50/89 88/51/88 72/48/72
f 73/49/73 89/50/89 72/48/72
f 30/25/30 89/50/89 73/49/73
f 51/14/51 49/12/49 50/13/50
f 90/33/90 49/12/49 51/14/51
f 52/32/52 90/33/90 51/14/51
f 91/53/91 90/33/90 52/32/52
f 53/35/53 91/53/91 52/32/52
f 92/58/92 91/53/91 53/35/53
f 54/36/54 92/58/92 53/35/53
f 93/59/93 92/58/92 54/36/54
f 90/33/90 48/34/48 49/12/49
f 84/54/84 48/34/48 90/33/90
f 91/53/91 84/54/84 90/33/90
f 86/57/86 84/54/84 91/53/91
f 92/58/92 86/57/86 91/53/91
f 85/56/85 86/57/86 92/58/92
f 93/59/93 85/56/85 92/58/92
f 94/60/94 85/56/85 93/59/93
f 37/27/37 68/37/68 38/28/38
f 95/31/95 68/37/68 37/27/37
f 35/18/35 95/31/95 37/27/37
f 96/20/96 95/31/95 35/18/35
f 33/19/33 96/20/96 35/18/35
f 97/21/97 96/20/96 33/19/33
f 31/23/31 97/21/97 33/19/33
f 39/22/39 97/21/97 31/23/31
f 56/37/56 42/31/42 43/27/43
f 98/46/98 42/31/42 56/37/56
f 58/39/58 98/46/98 56/37/56
f 99/45/99 98/46/98 58/39/58
f 60/41/60 99/45/99 58/39/58
f 100/44/100 99/45/99 60/41/60
f 62/43/62 100/44/100 60/41/60
f 40/29/40 100/44/100 62/43/62
f 94/60/94 83/55/83 85/56/85
f 101/56/101 83/55/83 94/60/94
f 102/59/102 101/56/101 94/60/94
f 103/58/103 101/56/101 102/59/102
f 104/36/104 103/58/103 102/59/102
f 80/35/80 103/58/103 104/36/104
f 79/3/79 80/35/80 104/36/104
f 28/23/28 24/19/24 26/21/26
f 105/26/105 24/19/24 28/23/28
f 30/25/30 105/26/105 28/23/28
f 75/50/75 105/26/105 30/25/30
f 73/49/73 75/50/75 30/25/30
f 101/56/101 82/54/82 83/55/83
f 106/57/106 82/54/82 101/56/101
f 103/58/103 106/57/106 101/56/101
f 81/53/81 106/57/106 103/58/103
f 80/35/80 81/53/81 103/58/103
f 39/22/39 96/20/96 97/21/97
f 107/30/107 96/20/96 39/22/39
f 40/29/40 107/30/107 39/22/39
f 64/44/64 107/30/107 40/29/40
f 62/43/62 64/44/64 40/29/40
f 74/48/74 78/47/78 76/51/76
f 108/8/108 78/47/78 74/48/74
f 10/10/10 108/8/108 74/48/74
f 12/9/12 108/8/108 10/10/10
f 16/7/16 12/9/12 14/13/14
f 108/8/108 12/9/12 16/7/16
f 18/6/18 108/8/108 16/7/16
f 78/47/78 108/8/108 18/6/18
f 77/52/77 105/26/105 75/50/75
f 22/17/22 105/26/105 77/52/77
f 20/15/20 22/17/22 77/52/77
f 32/26/32 89/50/89 30/25/30
f 87/52/87 89/50/89 32/26/32
f 34/17/34 87/52/87 32/26/32
f 107/30/107 95/31/95 96/20/96
f 66/46/66 95/31/95 107/30/107
f 64/44/64 66/46/66 107/30/107
f 67/39/67 109/40/109 69/38/69
f 63/41/63 109/40/109 67/39/67
f 65/45/65 63/41/63 67/39/67
f 100/44/100 98/46/98 99/45/99
f 41/30/41 98/46/98 100/44/100
f 40/29/40 41/30/41 100/44/100
f 22/17/22 24/19/24 105/26/105
f 88/51/88 89/50/89 87/52/87
f 106/57/106 81/53/81 82/54/82
f 42/31/42 98/46/98 41/30/41
f 61/42/61 109/40/109 63/41/63
f 95/31/95 66/46/66 68/37/68
